{
    "asset": {
        "generator": "FBX2glTF v0.13.1",
        "version": "2.0"
    },
    "scene": 0,
    "buffers": [
        {
            "byteLength": 42144,
            "uri": "buffer.bin"
        }
    ],
    "bufferViews": [
        {
            "buffer": 0,
            "byteLength": 696,
            "byteOffset": 0,
            "target": 34963
        },
        {
            "buffer": 0,
            "byteLength": 2184,
            "byteOffset": 696,
            "target": 34962
        },
        {
            "buffer": 0,
            "byteLength": 2184,
            "byteOffset": 2880,
            "target": 34962
        },
        {
            "buffer": 0,
            "byteLength": 2184,
            "byteOffset": 5064,
            "target": 34963
        },
        {
            "buffer": 0,
            "byteLength": 7512,
            "byteOffset": 7248,
            "target": 34962
        },
        {
            "buffer": 0,
            "byteLength": 7512,
            "byteOffset": 14760,
            "target": 34962
        },
        {
            "buffer": 0,
            "byteLength": 2208,
            "byteOffset": 22272,
            "target": 34963
        },
        {
            "buffer": 0,
            "byteLength": 8832,
            "byteOffset": 24480,
            "target": 34962
        },
        {
            "buffer": 0,
            "byteLength": 8832,
            "byteOffset": 33312,
            "target": 34962
        }
    ],
    "scenes": [
        {
            "name": "Root Scene",
            "nodes": [
                0
            ]
        }
    ],
    "accessors": [
        {
            "componentType": 5123,
            "type": "SCALAR",
            "count": 348,
            "bufferView": 0,
            "byteOffset": 0
        },
        {
            "componentType": 5126,
            "type": "VEC3",
            "count": 182,
            "bufferView": 1,
            "byteOffset": 0,
            "min": [
                -0.00877841096371412,
                -0.00171860912814736,
                0.000151827334775589
            ],
            "max": [
                0.00870774406939745,
                0.00155307876411825,
                0.0315498858690262
            ]
        },
        {
            "componentType": 5126,
            "type": "VEC3",
            "count": 182,
            "bufferView": 2,
            "byteOffset": 0
        },
        {
            "componentType": 5123,
            "type": "SCALAR",
            "count": 1092,
            "bufferView": 3,
            "byteOffset": 0
        },
        {
            "componentType": 5126,
            "type": "VEC3",
            "count": 626,
            "bufferView": 4,
            "byteOffset": 0,
            "min": [
                -0.0132736153900623,
                -0.000575186801142991,
                -0.0133897960186005
            ],
            "max": [
                4.35096953879111e-05,
                0.000575186801142991,
                0.0163907408714294
            ]
        },
        {
            "componentType": 5126,
            "type": "VEC3",
            "count": 626,
            "bufferView": 5,
            "byteOffset": 0
        },
        {
            "componentType": 5123,
            "type": "SCALAR",
            "count": 1104,
            "bufferView": 6,
            "byteOffset": 0
        },
        {
            "componentType": 5126,
            "type": "VEC3",
            "count": 736,
            "bufferView": 7,
            "byteOffset": 0,
            "min": [
                -0.000418737035943195,
                -0.00159966002684087,
                -0.00046898316941224
            ],
            "max": [
                0.00254942569881678,
                0.00159966002684087,
                0.00046898316941224
            ]
        },
        {
            "componentType": 5126,
            "type": "VEC3",
            "count": 736,
            "bufferView": 8,
            "byteOffset": 0
        }
    ],
    "samplers": [
        {}
    ],
    "materials": [
        {
            "name": "Wood",
            "alphaMode": "OPAQUE",
            "doubleSided": false,
            "extras": {
                "fromFBX": {
                    "shadingModel": "Phong",
                    "isTruePBR": false
                }
            },
            "pbrMetallicRoughness": {
                "baseColorFactor": [
                    0.0819755345582962,
                    0.0327726379036903,
                    0.0184040535241365,
                    1.0
                ],
                "metallicFactor": 0.400000005960464,
                "roughnessFactor": 0.415087103843689
            }
        },
        {
            "name": "Metal",
            "alphaMode": "OPAQUE",
            "doubleSided": false,
            "extras": {
                "fromFBX": {
                    "shadingModel": "Phong",
                    "isTruePBR": false
                }
            },
            "pbrMetallicRoughness": {
                "baseColorFactor": [
                    0.243989855051041,
                    0.190718069672585,
                    0.0641758665442467,
                    1.0
                ],
                "metallicFactor": 0.400000005960464,
                "roughnessFactor": 0.415087103843689
            }
        }
    ],
    "meshes": [
        {
            "name": "DoorFrame",
            "primitives": [
                {
                    "material": 0,
                    "mode": 4,
                    "attributes": {
                        "NORMAL": 2,
                        "POSITION": 1
                    },
                    "indices": 0
                }
            ]
        },
        {
            "name": "Door",
            "primitives": [
                {
                    "material": 0,
                    "mode": 4,
                    "attributes": {
                        "NORMAL": 5,
                        "POSITION": 4
                    },
                    "indices": 3
                }
            ]
        },
        {
            "name": "DoorHandle",
            "primitives": [
                {
                    "material": 1,
                    "mode": 4,
                    "attributes": {
                        "NORMAL": 8,
                        "POSITION": 7
                    },
                    "indices": 6
                }
            ]
        }
    ],
    "nodes": [
        {
            "name": "RootNode",
            "translation": [
                0.0,
                0.0,
                0.0
            ],
            "rotation": [
                0.0,
                0.0,
                0.0,
                1.0
            ],
            "scale": [
                1.0,
                1.0,
                1.0
            ],
            "children": [
                1,
                2,
                3
            ]
        },
        {
            "name": "DoorFrame",
            "translation": [
                0.0,
                0.0,
                0.0
            ],
            "rotation": [
                -0.707106828689575,
                0.0,
                0.0,
                0.707106709480286
            ],
            "scale": [
                100.0,
                100.0,
                100.0
            ],
            "mesh": 0
        },
        {
            "name": "DoorHandle",
            "translation": [
                -0.499603152275085,
                1.23978817462921,
                0.00597101449966431
            ],
            "rotation": [
                -0.707106828689575,
                0.0,
                0.0,
                0.707106709480286
            ],
            "scale": [
                100.0,
                100.0,
                100.0
            ],
            "mesh": 2
        },
        {
            "name": "Door",
            "translation": [
                0.657971918582916,
                1.3541624546051,
                0.00827652588486671
            ],
            "rotation": [
                -0.707106828689575,
                0.0,
                0.0,
                0.707106709480286
            ],
            "scale": [
                100.0,
                100.0,
                100.0
            ],
            "mesh": 1
        }
    ]
}