{
    "asset": {
        "generator": "FBX2glTF v0.13.1",
        "version": "2.0"
    },
    "scene": 0,
    "buffers": [
        {
            "byteLength": 111936,
            "uri": "buffer.bin"
        }
    ],
    "bufferViews": [
        {
            "buffer": 0,
            "byteLength": 3096,
            "byteOffset": 0,
            "target": 34963
        },
        {
            "buffer": 0,
            "byteLength": 12108,
            "byteOffset": 3096,
            "target": 34962
        },
        {
            "buffer": 0,
            "byteLength": 12108,
            "byteOffset": 15204,
            "target": 34962
        },
        {
            "buffer": 0,
            "byteLength": 8688,
            "byteOffset": 27312,
            "target": 34963
        },
        {
            "buffer": 0,
            "byteLength": 33864,
            "byteOffset": 36000,
            "target": 34962
        },
        {
            "buffer": 0,
            "byteLength": 33864,
            "byteOffset": 69864,
            "target": 34962
        },
        {
            "buffer": 0,
            "byteLength": 912,
            "byteOffset": 103728,
            "target": 34963
        },
        {
            "buffer": 0,
            "byteLength": 3648,
            "byteOffset": 104640,
            "target": 34962
        },
        {
            "buffer": 0,
            "byteLength": 3648,
            "byteOffset": 108288,
            "target": 34962
        }
    ],
    "scenes": [
        {
            "name": "Root Scene",
            "nodes": [
                0
            ]
        }
    ],
    "accessors": [
        {
            "componentType": 5123,
            "type": "SCALAR",
            "count": 1548,
            "bufferView": 0,
            "byteOffset": 0
        },
        {
            "componentType": 5126,
            "type": "VEC3",
            "count": 1009,
            "bufferView": 1,
            "byteOffset": 0,
            "min": [
                -0.00353566254489124,
                -0.0036532839294523,
                0.000254173268331215
            ],
            "max": [
                0.00353566161356866,
                0.00307194609194994,
                0.00391741003841162
            ]
        },
        {
            "componentType": 5126,
            "type": "VEC3",
            "count": 1009,
            "bufferView": 2,
            "byteOffset": 0
        },
        {
            "componentType": 5123,
            "type": "SCALAR",
            "count": 4344,
            "bufferView": 3,
            "byteOffset": 0
        },
        {
            "componentType": 5126,
            "type": "VEC3",
            "count": 2822,
            "bufferView": 4,
            "byteOffset": 0,
            "min": [
                -0.00361205358058214,
                -0.00359003525227308,
                9.06420211777004e-07
            ],
            "max": [
                0.00360464956611395,
                0.00441877171397209,
                0.0112765273079276
            ]
        },
        {
            "componentType": 5126,
            "type": "VEC3",
            "count": 2822,
            "bufferView": 5,
            "byteOffset": 0
        },
        {
            "componentType": 5123,
            "type": "SCALAR",
            "count": 456,
            "bufferView": 6,
            "byteOffset": 0
        },
        {
            "componentType": 5126,
            "type": "VEC3",
            "count": 304,
            "bufferView": 7,
            "byteOffset": 0,
            "min": [
                -0.00270186504349113,
                -0.00290728569962084,
                0.00418502045795321
            ],
            "max": [
                0.00271436362527311,
                0.00374221126548946,
                0.0111055439338088
            ]
        },
        {
            "componentType": 5126,
            "type": "VEC3",
            "count": 304,
            "bufferView": 8,
            "byteOffset": 0
        }
    ],
    "samplers": [
        {}
    ],
    "materials": [
        {
            "name": "Grey",
            "alphaMode": "OPAQUE",
            "doubleSided": false,
            "extras": {
                "fromFBX": {
                    "shadingModel": "Phong",
                    "isTruePBR": false
                }
            },
            "pbrMetallicRoughness": {
                "baseColorFactor": [
                    0.280440241098404,
                    0.280440241098404,
                    0.280440241098404,
                    1.0
                ],
                "metallicFactor": 0.400000005960464,
                "roughnessFactor": 0.415087103843689
            }
        },
        {
            "name": "Black",
            "alphaMode": "OPAQUE",
            "doubleSided": false,
            "extras": {
                "fromFBX": {
                    "shadingModel": "Phong",
                    "isTruePBR": false
                }
            },
            "pbrMetallicRoughness": {
                "baseColorFactor": [
                    0.0317426957190037,
                    0.0317426957190037,
                    0.0317426957190037,
                    1.0
                ],
                "metallicFactor": 0.400000005960464,
                "roughnessFactor": 0.415087103843689
            }
        },
        {
            "name": "Chair",
            "alphaMode": "OPAQUE",
            "doubleSided": false,
            "extras": {
                "fromFBX": {
                    "shadingModel": "Phong",
                    "isTruePBR": false
                }
            },
            "pbrMetallicRoughness": {
                "baseColorFactor": [
                    0.0429978258907795,
                    0.144250020384789,
                    0.336014002561569,
                    1.0
                ],
                "metallicFactor": 0.400000005960464,
                "roughnessFactor": 0.415087103843689
            }
        }
    ],
    "meshes": [
        {
            "name": "OfficeChair",
            "primitives": [
                {
                    "material": 0,
                    "mode": 4,
                    "attributes": {
                        "NORMAL": 2,
                        "POSITION": 1
                    },
                    "indices": 0
                },
                {
                    "material": 1,
                    "mode": 4,
                    "attributes": {
                        "NORMAL": 5,
                        "POSITION": 4
                    },
                    "indices": 3
                },
                {
                    "material": 2,
                    "mode": 4,
                    "attributes": {
                        "NORMAL": 8,
                        "POSITION": 7
                    },
                    "indices": 6
                }
            ]
        }
    ],
    "nodes": [
        {
            "name": "RootNode",
            "translation": [
                0.0,
                0.0,
                0.0
            ],
            "rotation": [
                0.0,
                0.0,
                0.0,
                1.0
            ],
            "scale": [
                1.0,
                1.0,
                1.0
            ],
            "children": [
                1
            ]
        },
        {
            "name": "OfficeChair",
            "translation": [
                0.0,
                1.49011611938477e-08,
                0.0
            ],
            "rotation": [
                -0.707106828689575,
                0.0,
                0.0,
                0.707106709480286
            ],
            "scale": [
                100.0,
                100.0,
                100.0
            ],
            "mesh": 0
        }
    ]
}