{
    "asset": {
        "generator": "FBX2glTF v0.13.1",
        "version": "2.0"
    },
    "scene": 0,
    "buffers": [
        {
            "byteLength": 12816,
            "uri": "buffer.bin"
        }
    ],
    "bufferViews": [
        {
            "buffer": 0,
            "byteLength": 1116,
            "byteOffset": 0,
            "target": 34963
        },
        {
            "buffer": 0,
            "byteLength": 3480,
            "byteOffset": 1116,
            "target": 34962
        },
        {
            "buffer": 0,
            "byteLength": 3480,
            "byteOffset": 4596,
            "target": 34962
        },
        {
            "buffer": 0,
            "byteLength": 696,
            "byteOffset": 8076,
            "target": 34963
        },
        {
            "buffer": 0,
            "byteLength": 1968,
            "byteOffset": 8772,
            "target": 34962
        },
        {
            "buffer": 0,
            "byteLength": 1968,
            "byteOffset": 10740,
            "target": 34962
        },
        {
            "buffer": 0,
            "byteLength": 12,
            "byteOffset": 12708,
            "target": 34963
        },
        {
            "buffer": 0,
            "byteLength": 48,
            "byteOffset": 12720,
            "target": 34962
        },
        {
            "buffer": 0,
            "byteLength": 48,
            "byteOffset": 12768,
            "target": 34962
        }
    ],
    "scenes": [
        {
            "name": "Root Scene",
            "nodes": [
                0
            ]
        }
    ],
    "accessors": [
        {
            "componentType": 5123,
            "type": "SCALAR",
            "count": 558,
            "bufferView": 0,
            "byteOffset": 0
        },
        {
            "componentType": 5126,
            "type": "VEC3",
            "count": 290,
            "bufferView": 1,
            "byteOffset": 0,
            "min": [
                -0.00645956862717867,
                -0.00706056691706181,
                0.0
            ],
            "max": [
                0.00645956862717867,
                0.00617654947564006,
                0.0141877643764019
            ]
        },
        {
            "componentType": 5126,
            "type": "VEC3",
            "count": 290,
            "bufferView": 2,
            "byteOffset": 0
        },
        {
            "componentType": 5123,
            "type": "SCALAR",
            "count": 348,
            "bufferView": 3,
            "byteOffset": 0
        },
        {
            "componentType": 5126,
            "type": "VEC3",
            "count": 164,
            "bufferView": 4,
            "byteOffset": 0,
            "min": [
                -0.00645956862717867,
                -0.00660675251856446,
                0.0
            ],
            "max": [
                0.00645956862717867,
                0.00617654947564006,
                0.0147019540891051
            ]
        },
        {
            "componentType": 5126,
            "type": "VEC3",
            "count": 164,
            "bufferView": 5,
            "byteOffset": 0
        },
        {
            "componentType": 5123,
            "type": "SCALAR",
            "count": 6,
            "bufferView": 6,
            "byteOffset": 0
        },
        {
            "componentType": 5126,
            "type": "VEC3",
            "count": 4,
            "bufferView": 7,
            "byteOffset": 0,
            "min": [
                -0.000329224858433008,
                -0.00621609156951308,
                0.013051993213594
            ],
            "max": [
                0.00152946426533163,
                -0.00536478077992797,
                0.0142342709004879
            ]
        },
        {
            "componentType": 5126,
            "type": "VEC3",
            "count": 4,
            "bufferView": 8,
            "byteOffset": 0
        }
    ],
    "samplers": [
        {}
    ],
    "materials": [
        {
            "name": "Grey",
            "alphaMode": "OPAQUE",
            "doubleSided": false,
            "extras": {
                "fromFBX": {
                    "shadingModel": "Phong",
                    "isTruePBR": false
                }
            },
            "pbrMetallicRoughness": {
                "baseColorFactor": [
                    0.207835912704468,
                    0.205705836415291,
                    0.199392229318619,
                    1.0
                ],
                "metallicFactor": 0.400000005960464,
                "roughnessFactor": 0.415087103843689
            }
        },
        {
            "name": "White",
            "alphaMode": "OPAQUE",
            "doubleSided": false,
            "extras": {
                "fromFBX": {
                    "shadingModel": "Phong",
                    "isTruePBR": false
                }
            },
            "pbrMetallicRoughness": {
                "baseColorFactor": [
                    0.358380317687988,
                    0.354632526636124,
                    0.343526810407639,
                    1.0
                ],
                "metallicFactor": 0.400000005960464,
                "roughnessFactor": 0.415087103843689
            }
        },
        {
            "name": "Black",
            "alphaMode": "OPAQUE",
            "doubleSided": false,
            "extras": {
                "fromFBX": {
                    "shadingModel": "Phong",
                    "isTruePBR": false
                }
            },
            "pbrMetallicRoughness": {
                "baseColorFactor": [
                    0.0281733479350805,
                    0.0281733479350805,
                    0.0281733479350805,
                    1.0
                ],
                "metallicFactor": 0.400000005960464,
                "roughnessFactor": 0.415087103843689
            }
        }
    ],
    "meshes": [
        {
            "name": "Bathroom_WashingMachine",
            "primitives": [
                {
                    "material": 0,
                    "mode": 4,
                    "attributes": {
                        "NORMAL": 2,
                        "POSITION": 1
                    },
                    "indices": 0
                },
                {
                    "material": 1,
                    "mode": 4,
                    "attributes": {
                        "NORMAL": 5,
                        "POSITION": 4
                    },
                    "indices": 3
                },
                {
                    "material": 2,
                    "mode": 4,
                    "attributes": {
                        "NORMAL": 8,
                        "POSITION": 7
                    },
                    "indices": 6
                }
            ]
        }
    ],
    "nodes": [
        {
            "name": "RootNode",
            "translation": [
                0.0,
                0.0,
                0.0
            ],
            "rotation": [
                0.0,
                0.0,
                0.0,
                1.0
            ],
            "scale": [
                1.0,
                1.0,
                1.0
            ],
            "children": [
                1
            ]
        },
        {
            "name": "Bathroom_WashingMachine",
            "translation": [
                0.0,
                0.0,
                0.0
            ],
            "rotation": [
                -0.707106828689575,
                0.0,
                0.0,
                0.707106709480286
            ],
            "scale": [
                100.0,
                100.0,
                100.0
            ],
            "mesh": 0
        }
    ]
}