{
    "asset": {
        "generator": "FBX2glTF v0.13.1",
        "version": "2.0"
    },
    "scene": 0,
    "buffers": [
        {
            "byteLength": 22392,
            "uri": "buffer.bin"
        }
    ],
    "bufferViews": [
        {
            "buffer": 0,
            "byteLength": 276,
            "byteOffset": 0,
            "target": 34963
        },
        {
            "buffer": 0,
            "byteLength": 1104,
            "byteOffset": 276,
            "target": 34962
        },
        {
            "buffer": 0,
            "byteLength": 1104,
            "byteOffset": 1380,
            "target": 34962
        },
        {
            "buffer": 0,
            "byteLength": 132,
            "byteOffset": 2484,
            "target": 34963
        },
        {
            "buffer": 0,
            "byteLength": 456,
            "byteOffset": 2616,
            "target": 34962
        },
        {
            "buffer": 0,
            "byteLength": 456,
            "byteOffset": 3072,
            "target": 34962
        },
        {
            "buffer": 0,
            "byteLength": 408,
            "byteOffset": 3528,
            "target": 34963
        },
        {
            "buffer": 0,
            "byteLength": 1392,
            "byteOffset": 3936,
            "target": 34962
        },
        {
            "buffer": 0,
            "byteLength": 1392,
            "byteOffset": 5328,
            "target": 34962
        },
        {
            "buffer": 0,
            "byteLength": 1848,
            "byteOffset": 6720,
            "target": 34963
        },
        {
            "buffer": 0,
            "byteLength": 6912,
            "byteOffset": 8568,
            "target": 34962
        },
        {
            "buffer": 0,
            "byteLength": 6912,
            "byteOffset": 15480,
            "target": 34962
        }
    ],
    "scenes": [
        {
            "name": "Root Scene",
            "nodes": [
                0
            ]
        }
    ],
    "accessors": [
        {
            "componentType": 5123,
            "type": "SCALAR",
            "count": 138,
            "bufferView": 0,
            "byteOffset": 0
        },
        {
            "componentType": 5126,
            "type": "VEC3",
            "count": 92,
            "bufferView": 1,
            "byteOffset": 0,
            "min": [
                -0.00505405571311712,
                -0.00615020794793963,
                5.10511685009041e-12
            ],
            "max": [
                0.00505406130105257,
                0.00505405943840742,
                0.0161363128572702
            ]
        },
        {
            "componentType": 5126,
            "type": "VEC3",
            "count": 92,
            "bufferView": 2,
            "byteOffset": 0
        },
        {
            "componentType": 5123,
            "type": "SCALAR",
            "count": 66,
            "bufferView": 3,
            "byteOffset": 0
        },
        {
            "componentType": 5126,
            "type": "VEC3",
            "count": 38,
            "bufferView": 4,
            "byteOffset": 0,
            "min": [
                -0.00505405571311712,
                -0.00615020794793963,
                0.0156426876783371
            ],
            "max": [
                0.00505406130105257,
                0.00505405943840742,
                0.0161363128572702
            ]
        },
        {
            "componentType": 5126,
            "type": "VEC3",
            "count": 38,
            "bufferView": 5,
            "byteOffset": 0
        },
        {
            "componentType": 5123,
            "type": "SCALAR",
            "count": 204,
            "bufferView": 6,
            "byteOffset": 0
        },
        {
            "componentType": 5126,
            "type": "VEC3",
            "count": 116,
            "bufferView": 7,
            "byteOffset": 0,
            "min": [
                -0.00357690406963229,
                -0.00566058978438377,
                0.0121569130569696
            ],
            "max": [
                0.00357691990211606,
                0.00314667355269194,
                0.0163384098559618
            ]
        },
        {
            "componentType": 5126,
            "type": "VEC3",
            "count": 116,
            "bufferView": 8,
            "byteOffset": 0
        },
        {
            "componentType": 5123,
            "type": "SCALAR",
            "count": 924,
            "bufferView": 9,
            "byteOffset": 0
        },
        {
            "componentType": 5126,
            "type": "VEC3",
            "count": 576,
            "bufferView": 10,
            "byteOffset": 0,
            "min": [
                -0.000714615627657622,
                0.00193791871424764,
                0.0162084717303514
            ],
            "max": [
                0.000714627793058753,
                0.00401911837980151,
                0.0192439556121826
            ]
        },
        {
            "componentType": 5126,
            "type": "VEC3",
            "count": 576,
            "bufferView": 11,
            "byteOffset": 0
        }
    ],
    "samplers": [
        {}
    ],
    "materials": [
        {
            "name": "Kitchen",
            "alphaMode": "OPAQUE",
            "doubleSided": false,
            "extras": {
                "fromFBX": {
                    "shadingModel": "Phong",
                    "isTruePBR": false
                }
            },
            "pbrMetallicRoughness": {
                "baseColorFactor": [
                    0.103748239576817,
                    0.134356945753098,
                    0.115671575069427,
                    1.0
                ],
                "metallicFactor": 0.400000005960464,
                "roughnessFactor": 0.415087103843689
            }
        },
        {
            "name": "KitchenTop",
            "alphaMode": "OPAQUE",
            "doubleSided": false,
            "extras": {
                "fromFBX": {
                    "shadingModel": "Phong",
                    "isTruePBR": false
                }
            },
            "pbrMetallicRoughness": {
                "baseColorFactor": [
                    0.219060584902763,
                    0.216810613870621,
                    0.210141807794571,
                    1.0
                ],
                "metallicFactor": 0.400000005960464,
                "roughnessFactor": 0.415087103843689
            }
        },
        {
            "name": "White",
            "alphaMode": "OPAQUE",
            "doubleSided": false,
            "extras": {
                "fromFBX": {
                    "shadingModel": "Phong",
                    "isTruePBR": false
                }
            },
            "pbrMetallicRoughness": {
                "baseColorFactor": [
                    0.358380317687988,
                    0.354632526636124,
                    0.343526810407639,
                    1.0
                ],
                "metallicFactor": 0.400000005960464,
                "roughnessFactor": 0.415087103843689
            }
        },
        {
            "name": "LightMetal",
            "alphaMode": "OPAQUE",
            "doubleSided": false,
            "extras": {
                "fromFBX": {
                    "shadingModel": "Phong",
                    "isTruePBR": false
                }
            },
            "pbrMetallicRoughness": {
                "baseColorFactor": [
                    0.13868173956871,
                    0.13868173956871,
                    0.13868173956871,
                    1.0
                ],
                "metallicFactor": 0.400000005960464,
                "roughnessFactor": 0.415087103843689
            }
        }
    ],
    "meshes": [
        {
            "name": "Kitchen_Sink",
            "primitives": [
                {
                    "material": 0,
                    "mode": 4,
                    "attributes": {
                        "NORMAL": 2,
                        "POSITION": 1
                    },
                    "indices": 0
                },
                {
                    "material": 1,
                    "mode": 4,
                    "attributes": {
                        "NORMAL": 5,
                        "POSITION": 4
                    },
                    "indices": 3
                },
                {
                    "material": 2,
                    "mode": 4,
                    "attributes": {
                        "NORMAL": 8,
                        "POSITION": 7
                    },
                    "indices": 6
                },
                {
                    "material": 3,
                    "mode": 4,
                    "attributes": {
                        "NORMAL": 11,
                        "POSITION": 10
                    },
                    "indices": 9
                }
            ]
        }
    ],
    "nodes": [
        {
            "name": "RootNode",
            "translation": [
                0.0,
                0.0,
                0.0
            ],
            "rotation": [
                0.0,
                0.0,
                0.0,
                1.0
            ],
            "scale": [
                1.0,
                1.0,
                1.0
            ],
            "children": [
                1
            ]
        },
        {
            "name": "Kitchen_Sink",
            "translation": [
                0.0,
                0.0,
                0.0
            ],
            "rotation": [
                -0.707106828689575,
                0.0,
                0.0,
                0.707106709480286
            ],
            "scale": [
                100.0,
                100.0,
                100.0
            ],
            "mesh": 0
        }
    ]
}