{
    "asset": {
        "generator": "FBX2glTF v0.13.1",
        "version": "2.0"
    },
    "scene": 0,
    "buffers": [
        {
            "byteLength": 34200,
            "uri": "buffer.bin"
        }
    ],
    "bufferViews": [
        {
            "buffer": 0,
            "byteLength": 72,
            "byteOffset": 0,
            "target": 34963
        },
        {
            "buffer": 0,
            "byteLength": 288,
            "byteOffset": 72,
            "target": 34962
        },
        {
            "buffer": 0,
            "byteLength": 288,
            "byteOffset": 360,
            "target": 34962
        },
        {
            "buffer": 0,
            "byteLength": 2832,
            "byteOffset": 648,
            "target": 34963
        },
        {
            "buffer": 0,
            "byteLength": 11160,
            "byteOffset": 3480,
            "target": 34962
        },
        {
            "buffer": 0,
            "byteLength": 11160,
            "byteOffset": 14640,
            "target": 34962
        },
        {
            "buffer": 0,
            "byteLength": 168,
            "byteOffset": 25800,
            "target": 34963
        },
        {
            "buffer": 0,
            "byteLength": 672,
            "byteOffset": 25968,
            "target": 34962
        },
        {
            "buffer": 0,
            "byteLength": 672,
            "byteOffset": 26640,
            "target": 34962
        },
        {
            "buffer": 0,
            "byteLength": 840,
            "byteOffset": 27312,
            "target": 34963
        },
        {
            "buffer": 0,
            "byteLength": 3024,
            "byteOffset": 28152,
            "target": 34962
        },
        {
            "buffer": 0,
            "byteLength": 3024,
            "byteOffset": 31176,
            "target": 34962
        }
    ],
    "scenes": [
        {
            "name": "Root Scene",
            "nodes": [
                0
            ]
        }
    ],
    "accessors": [
        {
            "componentType": 5123,
            "type": "SCALAR",
            "count": 36,
            "bufferView": 0,
            "byteOffset": 0
        },
        {
            "componentType": 5126,
            "type": "VEC3",
            "count": 24,
            "bufferView": 1,
            "byteOffset": 0,
            "min": [
                -0.00753153860569,
                -0.00753153674304485,
                -0.000950113753788173
            ],
            "max": [
                0.00753154093399644,
                0.00753154326230288,
                -0.000828257761895657
            ]
        },
        {
            "componentType": 5126,
            "type": "VEC3",
            "count": 24,
            "bufferView": 2,
            "byteOffset": 0
        },
        {
            "componentType": 5123,
            "type": "SCALAR",
            "count": 1416,
            "bufferView": 3,
            "byteOffset": 0
        },
        {
            "componentType": 5126,
            "type": "VEC3",
            "count": 930,
            "bufferView": 4,
            "byteOffset": 0,
            "min": [
                -0.00814408622682095,
                -0.00868088379502296,
                -0.000922744977287948
            ],
            "max": [
                0.0107166264206171,
                0.0102474754676223,
                0.0344713740050793
            ]
        },
        {
            "componentType": 5126,
            "type": "VEC3",
            "count": 930,
            "bufferView": 5,
            "byteOffset": 0
        },
        {
            "componentType": 5123,
            "type": "SCALAR",
            "count": 84,
            "bufferView": 6,
            "byteOffset": 0
        },
        {
            "componentType": 5126,
            "type": "VEC3",
            "count": 56,
            "bufferView": 7,
            "byteOffset": 0,
            "min": [
                -0.00824125669896603,
                -0.00148303108289838,
                3.9358448702842e-05
            ],
            "max": [
                -0.00766289141029119,
                0.00893158931285143,
                0.0342146083712578
            ]
        },
        {
            "componentType": 5126,
            "type": "VEC3",
            "count": 56,
            "bufferView": 8,
            "byteOffset": 0
        },
        {
            "componentType": 5123,
            "type": "SCALAR",
            "count": 420,
            "bufferView": 9,
            "byteOffset": 0
        },
        {
            "componentType": 5126,
            "type": "VEC3",
            "count": 252,
            "bufferView": 10,
            "byteOffset": 0,
            "min": [
                -0.0082418592646718,
                -0.000788275676313788,
                0.0338481068611145
            ],
            "max": [
                -0.00745334383100271,
                0.00827090349048376,
                0.0345309786498547
            ]
        },
        {
            "componentType": 5126,
            "type": "VEC3",
            "count": 252,
            "bufferView": 11,
            "byteOffset": 0
        }
    ],
    "samplers": [
        {}
    ],
    "materials": [
        {
            "name": "Grey",
            "alphaMode": "OPAQUE",
            "doubleSided": false,
            "extras": {
                "fromFBX": {
                    "shadingModel": "Phong",
                    "isTruePBR": false
                }
            },
            "pbrMetallicRoughness": {
                "baseColorFactor": [
                    0.207835912704468,
                    0.205705836415291,
                    0.199392229318619,
                    1.0
                ],
                "metallicFactor": 0.400000005960464,
                "roughnessFactor": 0.415087103843689
            }
        },
        {
            "name": "LightMetal",
            "alphaMode": "OPAQUE",
            "doubleSided": false,
            "extras": {
                "fromFBX": {
                    "shadingModel": "Phong",
                    "isTruePBR": false
                }
            },
            "pbrMetallicRoughness": {
                "baseColorFactor": [
                    0.13868173956871,
                    0.13868173956871,
                    0.13868173956871,
                    1.0
                ],
                "metallicFactor": 0.400000005960464,
                "roughnessFactor": 0.415087103843689
            }
        },
        {
            "name": "Couch_Blue",
            "alphaMode": "OPAQUE",
            "doubleSided": false,
            "extras": {
                "fromFBX": {
                    "shadingModel": "Phong",
                    "isTruePBR": false
                }
            },
            "pbrMetallicRoughness": {
                "baseColorFactor": [
                    0.0314826890826225,
                    0.0603498592972755,
                    0.095415435731411,
                    1.0
                ],
                "metallicFactor": 0.400000005960464,
                "roughnessFactor": 0.415087103843689
            }
        },
        {
            "name": "Metal",
            "alphaMode": "OPAQUE",
            "doubleSided": false,
            "extras": {
                "fromFBX": {
                    "shadingModel": "Phong",
                    "isTruePBR": false
                }
            },
            "pbrMetallicRoughness": {
                "baseColorFactor": [
                    0.117847144603729,
                    0.0907118543982506,
                    0.0799826607108116,
                    1.0
                ],
                "metallicFactor": 0.400000005960464,
                "roughnessFactor": 0.415087103843689
            }
        }
    ],
    "meshes": [
        {
            "name": "Bathroom_Shower1",
            "primitives": [
                {
                    "material": 0,
                    "mode": 4,
                    "attributes": {
                        "NORMAL": 2,
                        "POSITION": 1
                    },
                    "indices": 0
                },
                {
                    "material": 1,
                    "mode": 4,
                    "attributes": {
                        "NORMAL": 5,
                        "POSITION": 4
                    },
                    "indices": 3
                },
                {
                    "material": 2,
                    "mode": 4,
                    "attributes": {
                        "NORMAL": 8,
                        "POSITION": 7
                    },
                    "indices": 6
                },
                {
                    "material": 3,
                    "mode": 4,
                    "attributes": {
                        "NORMAL": 11,
                        "POSITION": 10
                    },
                    "indices": 9
                }
            ]
        }
    ],
    "nodes": [
        {
            "name": "RootNode",
            "translation": [
                0.0,
                0.0,
                0.0
            ],
            "rotation": [
                0.0,
                0.0,
                0.0,
                1.0
            ],
            "scale": [
                1.0,
                1.0,
                1.0
            ],
            "children": [
                1
            ]
        },
        {
            "name": "Bathroom_Shower1",
            "translation": [
                0.0,
                0.0,
                0.0
            ],
            "rotation": [
                -0.707106828689575,
                0.0,
                0.0,
                0.707106709480286
            ],
            "scale": [
                100.0,
                100.0,
                100.0
            ],
            "mesh": 0
        }
    ]
}