{
    "asset": {
        "generator": "FBX2glTF v0.13.1",
        "version": "2.0"
    },
    "scene": 0,
    "buffers": [
        {
            "byteLength": 28032,
            "uri": "buffer.bin"
        }
    ],
    "bufferViews": [
        {
            "buffer": 0,
            "byteLength": 2520,
            "byteOffset": 0,
            "target": 34963
        },
        {
            "buffer": 0,
            "byteLength": 2664,
            "byteOffset": 2520,
            "target": 34962
        },
        {
            "buffer": 0,
            "byteLength": 2664,
            "byteOffset": 5184,
            "target": 34962
        },
        {
            "buffer": 0,
            "byteLength": 6048,
            "byteOffset": 7848,
            "target": 34963
        },
        {
            "buffer": 0,
            "byteLength": 7068,
            "byteOffset": 13896,
            "target": 34962
        },
        {
            "buffer": 0,
            "byteLength": 7068,
            "byteOffset": 20964,
            "target": 34962
        }
    ],
    "scenes": [
        {
            "name": "Root Scene",
            "nodes": [
                0
            ]
        }
    ],
    "accessors": [
        {
            "componentType": 5123,
            "type": "SCALAR",
            "count": 1260,
            "bufferView": 0,
            "byteOffset": 0
        },
        {
            "componentType": 5126,
            "type": "VEC3",
            "count": 222,
            "bufferView": 1,
            "byteOffset": 0,
            "min": [
                -0.032992847263813,
                -0.0294676125049591,
                -0.000154544759425335
            ],
            "max": [
                0.0229600686579943,
                0.0138021120801568,
                0.0155474562197924
            ]
        },
        {
            "componentType": 5126,
            "type": "VEC3",
            "count": 222,
            "bufferView": 2,
            "byteOffset": 0
        },
        {
            "componentType": 5123,
            "type": "SCALAR",
            "count": 3024,
            "bufferView": 3,
            "byteOffset": 0
        },
        {
            "componentType": 5126,
            "type": "VEC3",
            "count": 589,
            "bufferView": 4,
            "byteOffset": 0,
            "min": [
                -0.0295168794691563,
                -0.0285315252840519,
                0.003861767007038
            ],
            "max": [
                0.0231512431055307,
                0.0116271926090121,
                0.02245869114995
            ]
        },
        {
            "componentType": 5126,
            "type": "VEC3",
            "count": 589,
            "bufferView": 5,
            "byteOffset": 0
        }
    ],
    "samplers": [
        {}
    ],
    "materials": [
        {
            "name": "Couch_BeigeDark",
            "alphaMode": "OPAQUE",
            "doubleSided": false,
            "extras": {
                "fromFBX": {
                    "shadingModel": "Phong",
                    "isTruePBR": false
                }
            },
            "pbrMetallicRoughness": {
                "baseColorFactor": [
                    0.0788018405437469,
                    0.0693796724081039,
                    0.0634852275252342,
                    1.0
                ],
                "metallicFactor": 0.400000005960464,
                "roughnessFactor": 0.415087103843689
            }
        },
        {
            "name": "Couch_Beige",
            "alphaMode": "OPAQUE",
            "doubleSided": false,
            "extras": {
                "fromFBX": {
                    "shadingModel": "Phong",
                    "isTruePBR": false
                }
            },
            "pbrMetallicRoughness": {
                "baseColorFactor": [
                    0.125944539904594,
                    0.109880462288857,
                    0.100405238568783,
                    1.0
                ],
                "metallicFactor": 0.400000005960464,
                "roughnessFactor": 0.415087103843689
            }
        }
    ],
    "meshes": [
        {
            "name": "Couch_L",
            "primitives": [
                {
                    "material": 0,
                    "mode": 4,
                    "attributes": {
                        "NORMAL": 2,
                        "POSITION": 1
                    },
                    "indices": 0
                },
                {
                    "material": 1,
                    "mode": 4,
                    "attributes": {
                        "NORMAL": 5,
                        "POSITION": 4
                    },
                    "indices": 3
                }
            ]
        }
    ],
    "nodes": [
        {
            "name": "RootNode",
            "translation": [
                0.0,
                0.0,
                0.0
            ],
            "rotation": [
                0.0,
                0.0,
                0.0,
                1.0
            ],
            "scale": [
                1.0,
                1.0,
                1.0
            ],
            "children": [
                1
            ]
        },
        {
            "name": "Couch_L",
            "translation": [
                0.0,
                0.0,
                0.0
            ],
            "rotation": [
                -0.707106828689575,
                0.0,
                0.0,
                0.707106709480286
            ],
            "scale": [
                100.0,
                100.0,
                100.0
            ],
            "mesh": 0
        }
    ]
}