{
    "asset": {
        "generator": "FBX2glTF v0.13.1",
        "version": "2.0"
    },
    "scene": 0,
    "buffers": [
        {
            "byteLength": 9048,
            "uri": "buffer.bin"
        }
    ],
    "bufferViews": [
        {
            "buffer": 0,
            "byteLength": 348,
            "byteOffset": 0,
            "target": 34963
        },
        {
            "buffer": 0,
            "byteLength": 912,
            "byteOffset": 348,
            "target": 34962
        },
        {
            "buffer": 0,
            "byteLength": 912,
            "byteOffset": 1260,
            "target": 34962
        },
        {
            "buffer": 0,
            "byteLength": 1212,
            "byteOffset": 2172,
            "target": 34963
        },
        {
            "buffer": 0,
            "byteLength": 2832,
            "byteOffset": 3384,
            "target": 34962
        },
        {
            "buffer": 0,
            "byteLength": 2832,
            "byteOffset": 6216,
            "target": 34962
        }
    ],
    "scenes": [
        {
            "name": "Root Scene",
            "nodes": [
                0
            ]
        }
    ],
    "accessors": [
        {
            "componentType": 5123,
            "type": "SCALAR",
            "count": 174,
            "bufferView": 0,
            "byteOffset": 0
        },
        {
            "componentType": 5126,
            "type": "VEC3",
            "count": 76,
            "bufferView": 1,
            "byteOffset": 0,
            "min": [
                -0.00246467278338969,
                -0.00160843587946147,
                0.000215349093195982
            ],
            "max": [
                0.00246467278338969,
                0.00139225565362722,
                0.00608384003862739
            ]
        },
        {
            "componentType": 5126,
            "type": "VEC3",
            "count": 76,
            "bufferView": 2,
            "byteOffset": 0
        },
        {
            "componentType": 5123,
            "type": "SCALAR",
            "count": 606,
            "bufferView": 3,
            "byteOffset": 0
        },
        {
            "componentType": 5126,
            "type": "VEC3",
            "count": 236,
            "bufferView": 4,
            "byteOffset": 0,
            "min": [
                -0.0025151448789984,
                -0.00163992412853986,
                -6.86005805619061e-05
            ],
            "max": [
                0.0025151448789984,
                0.0014222163008526,
                0.00705583207309246
            ]
        },
        {
            "componentType": 5126,
            "type": "VEC3",
            "count": 236,
            "bufferView": 5,
            "byteOffset": 0
        }
    ],
    "samplers": [
        {}
    ],
    "materials": [
        {
            "name": "LightMetal",
            "alphaMode": "OPAQUE",
            "doubleSided": false,
            "extras": {
                "fromFBX": {
                    "shadingModel": "Phong",
                    "isTruePBR": false
                }
            },
            "pbrMetallicRoughness": {
                "baseColorFactor": [
                    0.13868173956871,
                    0.13868173956871,
                    0.13868173956871,
                    1.0
                ],
                "metallicFactor": 0.400000005960464,
                "roughnessFactor": 0.415087103843689
            }
        },
        {
            "name": "Black",
            "alphaMode": "OPAQUE",
            "doubleSided": false,
            "extras": {
                "fromFBX": {
                    "shadingModel": "Phong",
                    "isTruePBR": false
                }
            },
            "pbrMetallicRoughness": {
                "baseColorFactor": [
                    0.0281733479350805,
                    0.0281733479350805,
                    0.0281733479350805,
                    1.0
                ],
                "metallicFactor": 0.400000005960464,
                "roughnessFactor": 0.415087103843689
            }
        }
    ],
    "meshes": [
        {
            "name": "Trashcan_Small1",
            "primitives": [
                {
                    "material": 0,
                    "mode": 4,
                    "attributes": {
                        "NORMAL": 2,
                        "POSITION": 1
                    },
                    "indices": 0
                },
                {
                    "material": 1,
                    "mode": 4,
                    "attributes": {
                        "NORMAL": 5,
                        "POSITION": 4
                    },
                    "indices": 3
                }
            ]
        }
    ],
    "nodes": [
        {
            "name": "RootNode",
            "translation": [
                0.0,
                0.0,
                0.0
            ],
            "rotation": [
                0.0,
                0.0,
                0.0,
                1.0
            ],
            "scale": [
                1.0,
                1.0,
                1.0
            ],
            "children": [
                1
            ]
        },
        {
            "name": "Trashcan_Small1",
            "translation": [
                0.0,
                0.0,
                0.0
            ],
            "rotation": [
                -0.707106828689575,
                0.0,
                0.0,
                0.707106709480286
            ],
            "scale": [
                100.0,
                100.0,
                100.0
            ],
            "mesh": 0
        }
    ]
}