{
    "asset": {
        "generator": "FBX2glTF v0.13.1",
        "version": "2.0"
    },
    "scene": 0,
    "buffers": [
        {
            "byteLength": 9480,
            "uri": "buffer.bin"
        }
    ],
    "bufferViews": [
        {
            "buffer": 0,
            "byteLength": 96,
            "byteOffset": 0,
            "target": 34963
        },
        {
            "buffer": 0,
            "byteLength": 312,
            "byteOffset": 96,
            "target": 34962
        },
        {
            "buffer": 0,
            "byteLength": 312,
            "byteOffset": 408,
            "target": 34962
        },
        {
            "buffer": 0,
            "byteLength": 456,
            "byteOffset": 720,
            "target": 34963
        },
        {
            "buffer": 0,
            "byteLength": 1632,
            "byteOffset": 1176,
            "target": 34962
        },
        {
            "buffer": 0,
            "byteLength": 1632,
            "byteOffset": 2808,
            "target": 34962
        },
        {
            "buffer": 0,
            "byteLength": 720,
            "byteOffset": 4440,
            "target": 34963
        },
        {
            "buffer": 0,
            "byteLength": 2160,
            "byteOffset": 5160,
            "target": 34962
        },
        {
            "buffer": 0,
            "byteLength": 2160,
            "byteOffset": 7320,
            "target": 34962
        }
    ],
    "scenes": [
        {
            "name": "Root Scene",
            "nodes": [
                0
            ]
        }
    ],
    "accessors": [
        {
            "componentType": 5123,
            "type": "SCALAR",
            "count": 48,
            "bufferView": 0,
            "byteOffset": 0
        },
        {
            "componentType": 5126,
            "type": "VEC3",
            "count": 26,
            "bufferView": 1,
            "byteOffset": 0,
            "min": [
                -0.00505405571311712,
                -0.00615020794793963,
                0.0157517567276955
            ],
            "max": [
                0.00505406362935901,
                0.00505405943840742,
                0.0162453819066286
            ]
        },
        {
            "componentType": 5126,
            "type": "VEC3",
            "count": 26,
            "bufferView": 2,
            "byteOffset": 0
        },
        {
            "componentType": 5123,
            "type": "SCALAR",
            "count": 228,
            "bufferView": 3,
            "byteOffset": 0
        },
        {
            "componentType": 5126,
            "type": "VEC3",
            "count": 136,
            "bufferView": 4,
            "byteOffset": 0,
            "min": [
                -0.00505405571311712,
                -0.00615020794793963,
                0.0
            ],
            "max": [
                0.00505406362935901,
                0.00505405943840742,
                0.0157517567276955
            ]
        },
        {
            "componentType": 5126,
            "type": "VEC3",
            "count": 136,
            "bufferView": 5,
            "byteOffset": 0
        },
        {
            "componentType": 5123,
            "type": "SCALAR",
            "count": 360,
            "bufferView": 6,
            "byteOffset": 0
        },
        {
            "componentType": 5126,
            "type": "VEC3",
            "count": 180,
            "bufferView": 7,
            "byteOffset": 0,
            "min": [
                -0.00113954173866659,
                -0.00566058978438377,
                0.00320508773438632
            ],
            "max": [
                0.00113954965490848,
                -0.0051259589381516,
                0.0151869505643845
            ]
        },
        {
            "componentType": 5126,
            "type": "VEC3",
            "count": 180,
            "bufferView": 8,
            "byteOffset": 0
        }
    ],
    "samplers": [
        {}
    ],
    "materials": [
        {
            "name": "KitchenTop",
            "alphaMode": "OPAQUE",
            "doubleSided": false,
            "extras": {
                "fromFBX": {
                    "shadingModel": "Phong",
                    "isTruePBR": false
                }
            },
            "pbrMetallicRoughness": {
                "baseColorFactor": [
                    0.219060584902763,
                    0.216810613870621,
                    0.210141807794571,
                    1.0
                ],
                "metallicFactor": 0.400000005960464,
                "roughnessFactor": 0.415087103843689
            }
        },
        {
            "name": "Kitchen",
            "alphaMode": "OPAQUE",
            "doubleSided": false,
            "extras": {
                "fromFBX": {
                    "shadingModel": "Phong",
                    "isTruePBR": false
                }
            },
            "pbrMetallicRoughness": {
                "baseColorFactor": [
                    0.103748239576817,
                    0.134356945753098,
                    0.115671575069427,
                    1.0
                ],
                "metallicFactor": 0.400000005960464,
                "roughnessFactor": 0.415087103843689
            }
        },
        {
            "name": "White",
            "alphaMode": "OPAQUE",
            "doubleSided": false,
            "extras": {
                "fromFBX": {
                    "shadingModel": "Phong",
                    "isTruePBR": false
                }
            },
            "pbrMetallicRoughness": {
                "baseColorFactor": [
                    0.358380317687988,
                    0.354632526636124,
                    0.343526810407639,
                    1.0
                ],
                "metallicFactor": 0.400000005960464,
                "roughnessFactor": 0.415087103843689
            }
        }
    ],
    "meshes": [
        {
            "name": "Kitchen_3Drawers",
            "primitives": [
                {
                    "material": 0,
                    "mode": 4,
                    "attributes": {
                        "NORMAL": 2,
                        "POSITION": 1
                    },
                    "indices": 0
                },
                {
                    "material": 1,
                    "mode": 4,
                    "attributes": {
                        "NORMAL": 5,
                        "POSITION": 4
                    },
                    "indices": 3
                },
                {
                    "material": 2,
                    "mode": 4,
                    "attributes": {
                        "NORMAL": 8,
                        "POSITION": 7
                    },
                    "indices": 6
                }
            ]
        }
    ],
    "nodes": [
        {
            "name": "RootNode",
            "translation": [
                0.0,
                0.0,
                0.0
            ],
            "rotation": [
                0.0,
                0.0,
                0.0,
                1.0
            ],
            "scale": [
                1.0,
                1.0,
                1.0
            ],
            "children": [
                1
            ]
        },
        {
            "name": "Kitchen_3Drawers",
            "translation": [
                0.0,
                0.0,
                0.0
            ],
            "rotation": [
                -0.707106828689575,
                0.0,
                0.0,
                0.707106709480286
            ],
            "scale": [
                100.0,
                100.0,
                100.0
            ],
            "mesh": 0
        }
    ]
}