{
    "asset": {
        "generator": "FBX2glTF v0.13.1",
        "version": "2.0"
    },
    "scene": 0,
    "buffers": [
        {
            "byteLength": 28056,
            "uri": "buffer.bin"
        }
    ],
    "bufferViews": [
        {
            "buffer": 0,
            "byteLength": 3000,
            "byteOffset": 0,
            "target": 34963
        },
        {
            "buffer": 0,
            "byteLength": 3024,
            "byteOffset": 3000,
            "target": 34962
        },
        {
            "buffer": 0,
            "byteLength": 3024,
            "byteOffset": 6024,
            "target": 34962
        },
        {
            "buffer": 0,
            "byteLength": 5760,
            "byteOffset": 9048,
            "target": 34963
        },
        {
            "buffer": 0,
            "byteLength": 6624,
            "byteOffset": 14808,
            "target": 34962
        },
        {
            "buffer": 0,
            "byteLength": 6624,
            "byteOffset": 21432,
            "target": 34962
        }
    ],
    "scenes": [
        {
            "name": "Root Scene",
            "nodes": [
                0
            ]
        }
    ],
    "accessors": [
        {
            "componentType": 5123,
            "type": "SCALAR",
            "count": 1500,
            "bufferView": 0,
            "byteOffset": 0
        },
        {
            "componentType": 5126,
            "type": "VEC3",
            "count": 252,
            "bufferView": 1,
            "byteOffset": 0,
            "min": [
                -0.0273774489760399,
                -0.013171361759305,
                7.34646232736225e-10
            ],
            "max": [
                0.0273774694651365,
                0.00675152335315943,
                0.0151484925299883
            ]
        },
        {
            "componentType": 5126,
            "type": "VEC3",
            "count": 252,
            "bufferView": 2,
            "byteOffset": 0
        },
        {
            "componentType": 5123,
            "type": "SCALAR",
            "count": 2880,
            "bufferView": 3,
            "byteOffset": 0
        },
        {
            "componentType": 5126,
            "type": "VEC3",
            "count": 552,
            "bufferView": 4,
            "byteOffset": 0,
            "min": [
                -0.0224825609475374,
                -0.0122246267274022,
                0.00388843938708305
            ],
            "max": [
                0.0224483627825975,
                0.00458326563239098,
                0.0210644006729126
            ]
        },
        {
            "componentType": 5126,
            "type": "VEC3",
            "count": 552,
            "bufferView": 5,
            "byteOffset": 0
        }
    ],
    "samplers": [
        {}
    ],
    "materials": [
        {
            "name": "DarkRed",
            "alphaMode": "OPAQUE",
            "doubleSided": false,
            "extras": {
                "fromFBX": {
                    "shadingModel": "Phong",
                    "isTruePBR": false
                }
            },
            "pbrMetallicRoughness": {
                "baseColorFactor": [
                    0.0819768831133842,
                    0.0279013309627771,
                    0.0185342859476805,
                    1.0
                ],
                "metallicFactor": 0.400000005960464,
                "roughnessFactor": 0.415087103843689
            }
        },
        {
            "name": "Red",
            "alphaMode": "OPAQUE",
            "doubleSided": false,
            "extras": {
                "fromFBX": {
                    "shadingModel": "Phong",
                    "isTruePBR": false
                }
            },
            "pbrMetallicRoughness": {
                "baseColorFactor": [
                    0.12594436109066,
                    0.0413946993649006,
                    0.0270033217966557,
                    1.0
                ],
                "metallicFactor": 0.400000005960464,
                "roughnessFactor": 0.415087103843689
            }
        }
    ],
    "meshes": [
        {
            "name": "Couch_Large1",
            "primitives": [
                {
                    "material": 0,
                    "mode": 4,
                    "attributes": {
                        "NORMAL": 2,
                        "POSITION": 1
                    },
                    "indices": 0
                },
                {
                    "material": 1,
                    "mode": 4,
                    "attributes": {
                        "NORMAL": 5,
                        "POSITION": 4
                    },
                    "indices": 3
                }
            ]
        }
    ],
    "nodes": [
        {
            "name": "RootNode",
            "translation": [
                0.0,
                0.0,
                0.0
            ],
            "rotation": [
                0.0,
                0.0,
                0.0,
                1.0
            ],
            "scale": [
                1.0,
                1.0,
                1.0
            ],
            "children": [
                1
            ]
        },
        {
            "name": "Couch_Large1",
            "translation": [
                0.0,
                0.0,
                0.0
            ],
            "rotation": [
                -0.707106828689575,
                0.0,
                0.0,
                0.707106709480286
            ],
            "scale": [
                100.0,
                100.0,
                100.0
            ],
            "mesh": 0
        }
    ]
}