{
    "asset": {
        "generator": "FBX2glTF v0.13.1",
        "version": "2.0"
    },
    "scene": 0,
    "buffers": [
        {
            "byteLength": 196824,
            "uri": "buffer.bin"
        }
    ],
    "bufferViews": [
        {
            "buffer": 0,
            "byteLength": 1632,
            "byteOffset": 0,
            "target": 34963
        },
        {
            "buffer": 0,
            "byteLength": 6528,
            "byteOffset": 1632,
            "target": 34962
        },
        {
            "buffer": 0,
            "byteLength": 6528,
            "byteOffset": 8160,
            "target": 34962
        },
        {
            "buffer": 0,
            "byteLength": 2976,
            "byteOffset": 14688,
            "target": 34963
        },
        {
            "buffer": 0,
            "byteLength": 11904,
            "byteOffset": 17664,
            "target": 34962
        },
        {
            "buffer": 0,
            "byteLength": 11904,
            "byteOffset": 29568,
            "target": 34962
        },
        {
            "buffer": 0,
            "byteLength": 3840,
            "byteOffset": 41472,
            "target": 34963
        },
        {
            "buffer": 0,
            "byteLength": 15360,
            "byteOffset": 45312,
            "target": 34962
        },
        {
            "buffer": 0,
            "byteLength": 15360,
            "byteOffset": 60672,
            "target": 34962
        },
        {
            "buffer": 0,
            "byteLength": 3336,
            "byteOffset": 76032,
            "target": 34963
        },
        {
            "buffer": 0,
            "byteLength": 12864,
            "byteOffset": 79368,
            "target": 34962
        },
        {
            "buffer": 0,
            "byteLength": 12864,
            "byteOffset": 92232,
            "target": 34962
        },
        {
            "buffer": 0,
            "byteLength": 1536,
            "byteOffset": 105096,
            "target": 34963
        },
        {
            "buffer": 0,
            "byteLength": 6144,
            "byteOffset": 106632,
            "target": 34962
        },
        {
            "buffer": 0,
            "byteLength": 6144,
            "byteOffset": 112776,
            "target": 34962
        },
        {
            "buffer": 0,
            "byteLength": 8784,
            "byteOffset": 118920,
            "target": 34963
        },
        {
            "buffer": 0,
            "byteLength": 34560,
            "byteOffset": 127704,
            "target": 34962
        },
        {
            "buffer": 0,
            "byteLength": 34560,
            "byteOffset": 162264,
            "target": 34962
        }
    ],
    "scenes": [
        {
            "name": "Root Scene",
            "nodes": [
                0
            ]
        }
    ],
    "accessors": [
        {
            "componentType": 5123,
            "type": "SCALAR",
            "count": 816,
            "bufferView": 0,
            "byteOffset": 0
        },
        {
            "componentType": 5126,
            "type": "VEC3",
            "count": 544,
            "bufferView": 1,
            "byteOffset": 0,
            "min": [
                -0.00607460923492908,
                -0.00301510724239051,
                -0.00134260440245271
            ],
            "max": [
                0.0059779928997159,
                0.00320458365604281,
                0.00145722762681544
            ]
        },
        {
            "componentType": 5126,
            "type": "VEC3",
            "count": 544,
            "bufferView": 2,
            "byteOffset": 0
        },
        {
            "componentType": 5123,
            "type": "SCALAR",
            "count": 1488,
            "bufferView": 3,
            "byteOffset": 0
        },
        {
            "componentType": 5126,
            "type": "VEC3",
            "count": 992,
            "bufferView": 4,
            "byteOffset": 0,
            "min": [
                -0.0095761539414525,
                0.00825867243111134,
                -0.00343160703778267
            ],
            "max": [
                0.00957615487277508,
                0.0171139650046825,
                0.00189988687634468
            ]
        },
        {
            "componentType": 5126,
            "type": "VEC3",
            "count": 992,
            "bufferView": 5,
            "byteOffset": 0
        },
        {
            "componentType": 5123,
            "type": "SCALAR",
            "count": 1920,
            "bufferView": 6,
            "byteOffset": 0
        },
        {
            "componentType": 5126,
            "type": "VEC3",
            "count": 1280,
            "bufferView": 7,
            "byteOffset": 0,
            "min": [
                -0.0102643761783838,
                -0.0171369481831789,
                -0.00338655989617109
            ],
            "max": [
                0.0102643761783838,
                0.00982051435858011,
                0.00198673084378242
            ]
        },
        {
            "componentType": 5126,
            "type": "VEC3",
            "count": 1280,
            "bufferView": 8,
            "byteOffset": 0
        },
        {
            "componentType": 5123,
            "type": "SCALAR",
            "count": 1668,
            "bufferView": 9,
            "byteOffset": 0
        },
        {
            "componentType": 5126,
            "type": "VEC3",
            "count": 1072,
            "bufferView": 10,
            "byteOffset": 0,
            "min": [
                -0.00860402639955282,
                -0.0314505323767662,
                -0.00248585105873644
            ],
            "max": [
                0.00860402546823025,
                0.00900282990187407,
                0.00122052081860602
            ]
        },
        {
            "componentType": 5126,
            "type": "VEC3",
            "count": 1072,
            "bufferView": 11,
            "byteOffset": 0
        },
        {
            "componentType": 5123,
            "type": "SCALAR",
            "count": 768,
            "bufferView": 12,
            "byteOffset": 0
        },
        {
            "componentType": 5126,
            "type": "VEC3",
            "count": 512,
            "bufferView": 13,
            "byteOffset": 0,
            "min": [
                -0.00982468668371439,
                -0.0206060837954283,
                0.00298523413948715
            ],
            "max": [
                0.00982468668371439,
                0.0210259072482586,
                0.0135470638051629
            ]
        },
        {
            "componentType": 5126,
            "type": "VEC3",
            "count": 512,
            "bufferView": 14,
            "byteOffset": 0
        },
        {
            "componentType": 5123,
            "type": "SCALAR",
            "count": 4392,
            "bufferView": 15,
            "byteOffset": 0
        },
        {
            "componentType": 5126,
            "type": "VEC3",
            "count": 2880,
            "bufferView": 16,
            "byteOffset": 0,
            "min": [
                -0.0103044277057052,
                -0.021082753315568,
                0.000732282758690417
            ],
            "max": [
                0.0103044277057052,
                0.0215025786310434,
                0.0163075886666775
            ]
        },
        {
            "componentType": 5126,
            "type": "VEC3",
            "count": 2880,
            "bufferView": 17,
            "byteOffset": 0
        }
    ],
    "samplers": [
        {}
    ],
    "materials": [
        {
            "name": "PillowCover",
            "alphaMode": "OPAQUE",
            "doubleSided": false,
            "extras": {
                "fromFBX": {
                    "shadingModel": "Phong",
                    "isTruePBR": false
                }
            },
            "pbrMetallicRoughness": {
                "baseColorFactor": [
                    0.0355624817311764,
                    0.0311304870992899,
                    0.0338132008910179,
                    1.0
                ],
                "metallicFactor": 0.400000005960464,
                "roughnessFactor": 0.415087103843689
            }
        },
        {
            "name": "ComforterLight",
            "alphaMode": "OPAQUE",
            "doubleSided": false,
            "extras": {
                "fromFBX": {
                    "shadingModel": "Phong",
                    "isTruePBR": false
                }
            },
            "pbrMetallicRoughness": {
                "baseColorFactor": [
                    0.125941753387451,
                    0.0374284945428371,
                    0.0691308155655861,
                    1.0
                ],
                "metallicFactor": 0.400000005960464,
                "roughnessFactor": 0.415087103843689
            }
        },
        {
            "name": "Comforter",
            "alphaMode": "OPAQUE",
            "doubleSided": false,
            "extras": {
                "fromFBX": {
                    "shadingModel": "Phong",
                    "isTruePBR": false
                }
            },
            "pbrMetallicRoughness": {
                "baseColorFactor": [
                    0.0534427762031555,
                    0.0134288249537349,
                    0.0312108397483826,
                    1.0
                ],
                "metallicFactor": 0.400000005960464,
                "roughnessFactor": 0.415087103843689
            }
        },
        {
            "name": "Mattress",
            "alphaMode": "OPAQUE",
            "doubleSided": false,
            "extras": {
                "fromFBX": {
                    "shadingModel": "Phong",
                    "isTruePBR": false
                }
            },
            "pbrMetallicRoughness": {
                "baseColorFactor": [
                    0.0635352656245232,
                    0.0508014932274818,
                    0.0668234825134277,
                    1.0
                ],
                "metallicFactor": 0.400000005960464,
                "roughnessFactor": 0.415087103843689
            }
        },
        {
            "name": "DarkWood",
            "alphaMode": "OPAQUE",
            "doubleSided": false,
            "extras": {
                "fromFBX": {
                    "shadingModel": "Phong",
                    "isTruePBR": false
                }
            },
            "pbrMetallicRoughness": {
                "baseColorFactor": [
                    0.106288827955723,
                    0.0645061358809471,
                    0.031178368255496,
                    1.0
                ],
                "metallicFactor": 0.400000005960464,
                "roughnessFactor": 0.415087103843689
            }
        },
        {
            "name": "Wood",
            "alphaMode": "OPAQUE",
            "doubleSided": false,
            "extras": {
                "fromFBX": {
                    "shadingModel": "Phong",
                    "isTruePBR": false
                }
            },
            "pbrMetallicRoughness": {
                "baseColorFactor": [
                    0.143087148666382,
                    0.0860678479075432,
                    0.0409014187753201,
                    1.0
                ],
                "metallicFactor": 0.400000005960464,
                "roughnessFactor": 0.415087103843689
            }
        }
    ],
    "meshes": [
        {
            "name": "Pillow",
            "primitives": [
                {
                    "material": 0,
                    "mode": 4,
                    "attributes": {
                        "NORMAL": 2,
                        "POSITION": 1
                    },
                    "indices": 0
                }
            ]
        },
        {
            "name": "Comforter",
            "primitives": [
                {
                    "material": 1,
                    "mode": 4,
                    "attributes": {
                        "NORMAL": 5,
                        "POSITION": 4
                    },
                    "indices": 3
                },
                {
                    "material": 2,
                    "mode": 4,
                    "attributes": {
                        "NORMAL": 8,
                        "POSITION": 7
                    },
                    "indices": 6
                }
            ]
        },
        {
            "name": "Mattress",
            "primitives": [
                {
                    "material": 3,
                    "mode": 4,
                    "attributes": {
                        "NORMAL": 11,
                        "POSITION": 10
                    },
                    "indices": 9
                }
            ]
        },
        {
            "name": "BedFrame",
            "primitives": [
                {
                    "material": 4,
                    "mode": 4,
                    "attributes": {
                        "NORMAL": 14,
                        "POSITION": 13
                    },
                    "indices": 12
                },
                {
                    "material": 5,
                    "mode": 4,
                    "attributes": {
                        "NORMAL": 17,
                        "POSITION": 16
                    },
                    "indices": 15
                }
            ]
        }
    ],
    "nodes": [
        {
            "name": "RootNode",
            "translation": [
                0.0,
                0.0,
                0.0
            ],
            "rotation": [
                0.0,
                0.0,
                0.0,
                1.0
            ],
            "scale": [
                1.0,
                1.0,
                1.0
            ],
            "children": [
                1,
                2,
                3,
                4
            ]
        },
        {
            "name": "Pillow",
            "translation": [
                -0.0104374289512634,
                0.725450098514557,
                -1.01182758808136
            ],
            "rotation": [
                -0.707106828689575,
                0.0,
                0.0,
                0.707106709480286
            ],
            "scale": [
                100.0,
                100.0,
                100.0
            ],
            "mesh": 0
        },
        {
            "name": "Comforter",
            "translation": [
                0.000160455703735352,
                0.589425802230835,
                0.934379637241364
            ],
            "rotation": [
                -0.707106828689575,
                0.0,
                0.0,
                0.707106709480286
            ],
            "scale": [
                100.0,
                100.0,
                100.0
            ],
            "mesh": 1
        },
        {
            "name": "Mattress",
            "translation": [
                0.000113964080810547,
                0.57677948474884,
                -0.520556211471558
            ],
            "rotation": [
                -0.707106828689575,
                0.0,
                0.0,
                0.707106709480286
            ],
            "scale": [
                100.0,
                100.0,
                100.0
            ],
            "mesh": 2
        },
        {
            "name": "BedFrame",
            "translation": [
                0.00123190879821777,
                -0.0850489437580109,
                0.620781719684601
            ],
            "rotation": [
                -0.707106828689575,
                0.0,
                0.0,
                0.707106709480286
            ],
            "scale": [
                100.0,
                100.0,
                100.0
            ],
            "mesh": 3
        }
    ]
}