{
    "asset": {
        "generator": "FBX2glTF v0.13.1",
        "version": "2.0"
    },
    "scene": 0,
    "buffers": [
        {
            "byteLength": 208236,
            "uri": "buffer.bin"
        }
    ],
    "bufferViews": [
        {
            "buffer": 0,
            "byteLength": 22308,
            "byteOffset": 0,
            "target": 34963
        },
        {
            "buffer": 0,
            "byteLength": 89004,
            "byteOffset": 22308,
            "target": 34962
        },
        {
            "buffer": 0,
            "byteLength": 89004,
            "byteOffset": 111312,
            "target": 34962
        },
        {
            "buffer": 0,
            "byteLength": 1008,
            "byteOffset": 200316,
            "target": 34963
        },
        {
            "buffer": 0,
            "byteLength": 3456,
            "byteOffset": 201324,
            "target": 34962
        },
        {
            "buffer": 0,
            "byteLength": 3456,
            "byteOffset": 204780,
            "target": 34962
        }
    ],
    "scenes": [
        {
            "name": "Root Scene",
            "nodes": [
                0
            ]
        }
    ],
    "accessors": [
        {
            "componentType": 5123,
            "type": "SCALAR",
            "count": 11154,
            "bufferView": 0,
            "byteOffset": 0
        },
        {
            "componentType": 5126,
            "type": "VEC3",
            "count": 7417,
            "bufferView": 1,
            "byteOffset": 0,
            "min": [
                -0.0202019121497869,
                -0.0215234458446503,
                0.00123343069572002
            ],
            "max": [
                0.019824555143714,
                0.00648844707757235,
                0.0143481427803636
            ]
        },
        {
            "componentType": 5126,
            "type": "VEC3",
            "count": 7417,
            "bufferView": 2,
            "byteOffset": 0
        },
        {
            "componentType": 5123,
            "type": "SCALAR",
            "count": 504,
            "bufferView": 3,
            "byteOffset": 0
        },
        {
            "componentType": 5126,
            "type": "VEC3",
            "count": 288,
            "bufferView": 4,
            "byteOffset": 0,
            "min": [
                -0.0183792002499104,
                -0.0206731241196394,
                -0.000176116082002409
            ],
            "max": [
                0.018239539116621,
                0.00526672694832087,
                0.00182787142693996
            ]
        },
        {
            "componentType": 5126,
            "type": "VEC3",
            "count": 288,
            "bufferView": 5,
            "byteOffset": 0
        }
    ],
    "samplers": [
        {}
    ],
    "materials": [
        {
            "name": "Sofa",
            "alphaMode": "OPAQUE",
            "doubleSided": false,
            "extras": {
                "fromFBX": {
                    "shadingModel": "Phong",
                    "isTruePBR": false
                }
            },
            "pbrMetallicRoughness": {
                "baseColorFactor": [
                    0.0217681415379047,
                    0.0217681415379047,
                    0.0217681415379047,
                    1.0
                ],
                "metallicFactor": 0.400000005960464,
                "roughnessFactor": 0.415087103843689
            }
        },
        {
            "name": "Legs",
            "alphaMode": "OPAQUE",
            "doubleSided": false,
            "extras": {
                "fromFBX": {
                    "shadingModel": "Phong",
                    "isTruePBR": false
                }
            },
            "pbrMetallicRoughness": {
                "baseColorFactor": [
                    0.0559813380241394,
                    0.0436607412993908,
                    0.0387599430978298,
                    1.0
                ],
                "metallicFactor": 0.400000005960464,
                "roughnessFactor": 0.415087103843689
            }
        }
    ],
    "meshes": [
        {
            "name": "Sofa3",
            "primitives": [
                {
                    "material": 0,
                    "mode": 4,
                    "attributes": {
                        "NORMAL": 2,
                        "POSITION": 1
                    },
                    "indices": 0
                },
                {
                    "material": 1,
                    "mode": 4,
                    "attributes": {
                        "NORMAL": 5,
                        "POSITION": 4
                    },
                    "indices": 3
                }
            ]
        }
    ],
    "nodes": [
        {
            "name": "RootNode",
            "translation": [
                0.0,
                0.0,
                0.0
            ],
            "rotation": [
                0.0,
                0.0,
                0.0,
                1.0
            ],
            "scale": [
                1.0,
                1.0,
                1.0
            ],
            "children": [
                1
            ]
        },
        {
            "name": "Sofa3",
            "translation": [
                0.0,
                0.0,
                0.0
            ],
            "rotation": [
                -0.707106828689575,
                0.0,
                0.0,
                0.707106709480286
            ],
            "scale": [
                100.0,
                100.0,
                100.0
            ],
            "mesh": 0
        }
    ]
}