{
    "asset": {
        "generator": "FBX2glTF v0.13.1",
        "version": "2.0"
    },
    "scene": 0,
    "buffers": [
        {
            "byteLength": 26880,
            "uri": "buffer.bin"
        }
    ],
    "bufferViews": [
        {
            "buffer": 0,
            "byteLength": 2592,
            "byteOffset": 0,
            "target": 34963
        },
        {
            "buffer": 0,
            "byteLength": 6816,
            "byteOffset": 2592,
            "target": 34962
        },
        {
            "buffer": 0,
            "byteLength": 6816,
            "byteOffset": 9408,
            "target": 34962
        },
        {
            "buffer": 0,
            "byteLength": 720,
            "byteOffset": 16224,
            "target": 34963
        },
        {
            "buffer": 0,
            "byteLength": 960,
            "byteOffset": 16944,
            "target": 34962
        },
        {
            "buffer": 0,
            "byteLength": 960,
            "byteOffset": 17904,
            "target": 34962
        },
        {
            "buffer": 0,
            "byteLength": 720,
            "byteOffset": 18864,
            "target": 34963
        },
        {
            "buffer": 0,
            "byteLength": 864,
            "byteOffset": 19584,
            "target": 34962
        },
        {
            "buffer": 0,
            "byteLength": 864,
            "byteOffset": 20448,
            "target": 34962
        },
        {
            "buffer": 0,
            "byteLength": 1728,
            "byteOffset": 21312,
            "target": 34963
        },
        {
            "buffer": 0,
            "byteLength": 1920,
            "byteOffset": 23040,
            "target": 34962
        },
        {
            "buffer": 0,
            "byteLength": 1920,
            "byteOffset": 24960,
            "target": 34962
        }
    ],
    "scenes": [
        {
            "name": "Root Scene",
            "nodes": [
                0
            ]
        }
    ],
    "accessors": [
        {
            "componentType": 5123,
            "type": "SCALAR",
            "count": 1296,
            "bufferView": 0,
            "byteOffset": 0
        },
        {
            "componentType": 5126,
            "type": "VEC3",
            "count": 568,
            "bufferView": 1,
            "byteOffset": 0,
            "min": [
                -0.00868665520101786,
                -0.0199869740754366,
                -0.000283071858575568
            ],
            "max": [
                0.0127075873315334,
                0.0199869722127914,
                0.0299703739583492
            ]
        },
        {
            "componentType": 5126,
            "type": "VEC3",
            "count": 568,
            "bufferView": 2,
            "byteOffset": 0
        },
        {
            "componentType": 5123,
            "type": "SCALAR",
            "count": 360,
            "bufferView": 3,
            "byteOffset": 0
        },
        {
            "componentType": 5126,
            "type": "VEC3",
            "count": 80,
            "bufferView": 4,
            "byteOffset": 0,
            "min": [
                -0.00898067560046911,
                0.00670769903808832,
                0.0042846561409533
            ],
            "max": [
                0.0102634020149708,
                0.0116903008893132,
                0.0279602278023958
            ]
        },
        {
            "componentType": 5126,
            "type": "VEC3",
            "count": 80,
            "bufferView": 5,
            "byteOffset": 0
        },
        {
            "componentType": 5123,
            "type": "SCALAR",
            "count": 360,
            "bufferView": 6,
            "byteOffset": 0
        },
        {
            "componentType": 5126,
            "type": "VEC3",
            "count": 72,
            "bufferView": 7,
            "byteOffset": 0,
            "min": [
                -0.00891135912388563,
                -0.0185841396450996,
                0.00434478186070919
            ],
            "max": [
                0.0101956650614738,
                0.0081701697781682,
                0.0273285526782274
            ]
        },
        {
            "componentType": 5126,
            "type": "VEC3",
            "count": 72,
            "bufferView": 8,
            "byteOffset": 0
        },
        {
            "componentType": 5123,
            "type": "SCALAR",
            "count": 864,
            "bufferView": 9,
            "byteOffset": 0
        },
        {
            "componentType": 5126,
            "type": "VEC3",
            "count": 160,
            "bufferView": 10,
            "byteOffset": 0,
            "min": [
                -0.0086702574044466,
                0.0114922616630793,
                0.00455391267314553
            ],
            "max": [
                0.00996007025241852,
                0.0195250473916531,
                0.0300240702927113
            ]
        },
        {
            "componentType": 5126,
            "type": "VEC3",
            "count": 160,
            "bufferView": 11,
            "byteOffset": 0
        }
    ],
    "samplers": [
        {}
    ],
    "materials": [
        {
            "name": "Wood",
            "alphaMode": "OPAQUE",
            "doubleSided": false,
            "extras": {
                "fromFBX": {
                    "shadingModel": "Phong",
                    "isTruePBR": false
                }
            },
            "pbrMetallicRoughness": {
                "baseColorFactor": [
                    0.0915483012795448,
                    0.0709244757890701,
                    0.0449027977883816,
                    1.0
                ],
                "metallicFactor": 0.400000005960464,
                "roughnessFactor": 0.415087103843689
            }
        },
        {
            "name": "Grey",
            "alphaMode": "OPAQUE",
            "doubleSided": false,
            "extras": {
                "fromFBX": {
                    "shadingModel": "Phong",
                    "isTruePBR": false
                }
            },
            "pbrMetallicRoughness": {
                "baseColorFactor": [
                    0.207835912704468,
                    0.205705836415291,
                    0.199392229318619,
                    1.0
                ],
                "metallicFactor": 0.400000005960464,
                "roughnessFactor": 0.415087103843689
            }
        },
        {
            "name": "Red",
            "alphaMode": "OPAQUE",
            "doubleSided": false,
            "extras": {
                "fromFBX": {
                    "shadingModel": "Phong",
                    "isTruePBR": false
                }
            },
            "pbrMetallicRoughness": {
                "baseColorFactor": [
                    0.12594436109066,
                    0.0413946993649006,
                    0.0270033217966557,
                    1.0
                ],
                "metallicFactor": 0.400000005960464,
                "roughnessFactor": 0.415087103843689
            }
        },
        {
            "name": "White",
            "alphaMode": "OPAQUE",
            "doubleSided": false,
            "extras": {
                "fromFBX": {
                    "shadingModel": "Phong",
                    "isTruePBR": false
                }
            },
            "pbrMetallicRoughness": {
                "baseColorFactor": [
                    0.358380317687988,
                    0.354632526636124,
                    0.343526810407639,
                    1.0
                ],
                "metallicFactor": 0.400000005960464,
                "roughnessFactor": 0.415087103843689
            }
        }
    ],
    "meshes": [
        {
            "name": "Bed_Bunk",
            "primitives": [
                {
                    "material": 0,
                    "mode": 4,
                    "attributes": {
                        "NORMAL": 2,
                        "POSITION": 1
                    },
                    "indices": 0
                },
                {
                    "material": 1,
                    "mode": 4,
                    "attributes": {
                        "NORMAL": 5,
                        "POSITION": 4
                    },
                    "indices": 3
                },
                {
                    "material": 2,
                    "mode": 4,
                    "attributes": {
                        "NORMAL": 8,
                        "POSITION": 7
                    },
                    "indices": 6
                },
                {
                    "material": 3,
                    "mode": 4,
                    "attributes": {
                        "NORMAL": 11,
                        "POSITION": 10
                    },
                    "indices": 9
                }
            ]
        }
    ],
    "nodes": [
        {
            "name": "RootNode",
            "translation": [
                0.0,
                0.0,
                0.0
            ],
            "rotation": [
                0.0,
                0.0,
                0.0,
                1.0
            ],
            "scale": [
                1.0,
                1.0,
                1.0
            ],
            "children": [
                1
            ]
        },
        {
            "name": "Bed_Bunk",
            "translation": [
                0.0,
                0.0,
                0.0
            ],
            "rotation": [
                -0.707106828689575,
                0.0,
                0.0,
                0.707106709480286
            ],
            "scale": [
                100.0,
                100.0,
                100.0
            ],
            "mesh": 0
        }
    ]
}